<svg width="18" height="19" viewBox="0 0 18 19" fill="none" xmlns="http://www.w3.org/2000/svg">
<path d="M14.0025 2H12.5775C10.9425 2 10.08 2.8625 10.08 4.4975V5.9225C10.08 7.5575 10.9425 8.42 12.5775 8.42H14.0025C15.6375 8.42 16.5 7.5575 16.5 5.9225V4.4975C16.5 2.8625 15.6375 2 14.0025 2Z" fill="url(#paint0_linear_356_51)"/>
<path d="M5.43 10.5725H4.005C2.3625 10.5725 1.5 11.435 1.5 13.07V14.495C1.5 16.1375 2.3625 17 3.9975 17H5.4225C7.0575 17 7.92 16.1375 7.92 14.5025V13.0775C7.9275 11.435 7.065 10.5725 5.43 10.5725Z" fill="url(#paint1_linear_356_51)"/>
<path d="M4.7175 8.435C6.49448 8.435 7.935 6.99448 7.935 5.2175C7.935 3.44052 6.49448 2 4.7175 2C2.94052 2 1.5 3.44052 1.5 5.2175C1.5 6.99448 2.94052 8.435 4.7175 8.435Z" fill="url(#paint2_linear_356_51)"/>
<path d="M13.2824 16.9999C15.0594 16.9999 16.4999 15.5594 16.4999 13.7824C16.4999 12.0055 15.0594 10.5649 13.2824 10.5649C11.5055 10.5649 10.0649 12.0055 10.0649 13.7824C10.0649 15.5594 11.5055 16.9999 13.2824 16.9999Z" fill="url(#paint3_linear_356_51)"/>
<defs>
<linearGradient id="paint0_linear_356_51" x1="12.6982" y1="6.02217" x2="15.899" y2="6.15495" gradientUnits="userSpaceOnUse">
<stop stop-color="#163930"/>
<stop offset="1" stop-color="#3D9F86"/>
</linearGradient>
<linearGradient id="paint1_linear_356_51" x1="4.11823" y1="14.5994" x2="7.31912" y2="14.732" gradientUnits="userSpaceOnUse">
<stop stop-color="#163930"/>
<stop offset="1" stop-color="#3D9F86"/>
</linearGradient>
<linearGradient id="paint2_linear_356_51" x1="4.12433" y1="6.03157" x2="7.33266" y2="6.16466" gradientUnits="userSpaceOnUse">
<stop stop-color="#163930"/>
<stop offset="1" stop-color="#3D9F86"/>
</linearGradient>
<linearGradient id="paint3_linear_356_51" x1="12.6893" y1="14.5965" x2="15.8976" y2="14.7296" gradientUnits="userSpaceOnUse">
<stop stop-color="#163930"/>
<stop offset="1" stop-color="#3D9F86"/>
</linearGradient>
</defs>
</svg>
