<svg width="19" height="18" viewBox="0 0 19 18" fill="none" xmlns="http://www.w3.org/2000/svg">
<path d="M14.5026 1.5H13.0776C11.4426 1.5 10.5801 2.3625 10.5801 3.9975V5.4225C10.5801 7.0575 11.4426 7.92 13.0776 7.92H14.5026C16.1376 7.92 17.0001 7.0575 17.0001 5.4225V3.9975C17.0001 2.3625 16.1376 1.5 14.5026 1.5Z" fill="url(#paint0_linear_194_1970)"/>
<path d="M5.93 10.0725H4.505C2.8625 10.0725 2 10.935 2 12.57V13.995C2 15.6375 2.8625 16.5 4.4975 16.5H5.9225C7.5575 16.5 8.42 15.6375 8.42 14.0025V12.5775C8.4275 10.935 7.565 10.0725 5.93 10.0725Z" fill="url(#paint1_linear_194_1970)"/>
<path d="M5.2175 7.935C6.99448 7.935 8.435 6.49448 8.435 4.7175C8.435 2.94052 6.99448 1.5 5.2175 1.5C3.44052 1.5 2 2.94052 2 4.7175C2 6.49448 3.44052 7.935 5.2175 7.935Z" fill="url(#paint2_linear_194_1970)"/>
<path d="M13.7824 16.5C15.5594 16.5 16.9999 15.0595 16.9999 13.2825C16.9999 11.5055 15.5594 10.065 13.7824 10.065C12.0055 10.065 10.5649 11.5055 10.5649 13.2825C10.5649 15.0595 12.0055 16.5 13.7824 16.5Z" fill="url(#paint3_linear_194_1970)"/>
<defs>
<linearGradient id="paint0_linear_194_1970" x1="10.825" y1="1.5" x2="16.7552" y2="7.92" gradientUnits="userSpaceOnUse">
<stop stop-color="#FEBE3F"/>
<stop offset="1" stop-color="#FE8048"/>
</linearGradient>
<linearGradient id="paint1_linear_194_1970" x1="2.24488" y1="10.0725" x2="8.18259" y2="16.4931" gradientUnits="userSpaceOnUse">
<stop stop-color="#FEBE3F"/>
<stop offset="1" stop-color="#FE8048"/>
</linearGradient>
<linearGradient id="paint2_linear_194_1970" x1="2.24545" y1="1.5" x2="8.18955" y2="7.935" gradientUnits="userSpaceOnUse">
<stop stop-color="#FEBE3F"/>
<stop offset="1" stop-color="#FE8048"/>
</linearGradient>
<linearGradient id="paint3_linear_194_1970" x1="10.8104" y1="10.065" x2="16.7545" y2="16.5" gradientUnits="userSpaceOnUse">
<stop stop-color="#FEBE3F"/>
<stop offset="1" stop-color="#FE8048"/>
</linearGradient>
</defs>
</svg>
