<svg width="38" height="38" viewBox="0 0 38 38" fill="none" xmlns="http://www.w3.org/2000/svg">
<path opacity="0.4" d="M25.6342 3.16699H12.3659C6.60252 3.16699 3.16669 6.60283 3.16669 12.3662V25.6187C3.16669 31.3978 6.60252 34.8337 12.3659 34.8337H25.6184C31.3817 34.8337 34.8175 31.3978 34.8175 25.6345V12.3662C34.8334 6.60283 31.3975 3.16699 25.6342 3.16699Z" fill="#163930"/>
<path d="M15.2 24.9854C14.8992 24.9854 14.5983 24.8745 14.3608 24.637L10.4183 20.6945C9.48417 19.7604 9.48417 18.2562 10.4183 17.322L14.3608 13.3795C14.82 12.9204 15.58 12.9204 16.0392 13.3795C16.4983 13.8387 16.4983 14.5987 16.0392 15.0579L12.0967 19.0004L16.0392 22.9587C16.4983 23.4179 16.4983 24.1779 16.0392 24.637C15.8017 24.8587 15.5008 24.9854 15.2 24.9854Z" fill="#163930"/>
<path d="M22.8 24.9846C22.4992 24.9846 22.1983 24.8738 21.9608 24.6363C21.5017 24.1771 21.5017 23.4171 21.9608 22.9579L25.9033 18.9996L21.9608 15.0413C21.5017 14.5821 21.5017 13.8221 21.9608 13.3629C22.42 12.9038 23.18 12.9038 23.6392 13.3629L27.5817 17.3054C28.5158 18.2396 28.5158 19.7438 27.5817 20.6779L23.6392 24.6204C23.4175 24.8579 23.1008 24.9846 22.8 24.9846Z" fill="#163930"/>
<path d="M17.7443 22.1743C17.6443 22.1743 17.5443 22.1543 17.4543 22.1143C17.0743 21.9543 16.8943 21.5143 17.0643 21.1243L19.0643 16.4543C19.2243 16.0743 19.6643 15.8943 20.0443 16.0643C20.4243 16.2243 20.6043 16.6643 20.4343 17.0543L18.4343 21.7243C18.3143 22.0043 18.0343 22.1743 17.7443 22.1743Z" fill="#14342C"/>
</svg>
