<svg width="20" height="21" viewBox="0 0 20 21" fill="none" xmlns="http://www.w3.org/2000/svg">
<path d="M10.1334 9.55768C10.05 9.54935 9.95005 9.54935 9.85838 9.55768C7.87505 9.49102 6.30005 7.86602 6.30005 5.86602C6.30005 3.82435 7.95005 2.16602 10 2.16602C12.0417 2.16602 13.7 3.82435 13.7 5.86602C13.6917 7.86602 12.1167 9.49102 10.1334 9.55768Z" stroke="#828282" strokeWidth="1.5" strokeLinecap="round" strokeLinejoin="round"/>
<path d="M5.9666 12.634C3.94993 13.984 3.94993 16.184 5.9666 17.5257C8.25827 19.059 12.0166 19.059 14.3083 17.5257C16.3249 16.1757 16.3249 13.9757 14.3083 12.634C12.0249 11.109 8.2666 11.109 5.9666 12.634Z" stroke="#828282" strokeWidth="1.5" strokeLinecap="round" strokeLinejoin="round"/>
</svg>
