<svg width="65" height="64" viewBox="0 0 65 64" fill="none" xmlns="http://www.w3.org/2000/svg">
<rect x="0.333344" width="64" height="64" rx="32" fill="#E8EBEA"/>
<path d="M43.6058 21.993L33.6783 16.6414C32.6333 16.0714 31.3667 16.0714 30.3217 16.6414L20.3942 21.993C19.6658 22.3889 19.2225 23.1489 19.2225 24.0197C19.2225 24.8747 19.6658 25.6505 20.3942 26.0464L30.3217 31.398C30.8442 31.683 31.43 31.8255 32 31.8255C32.57 31.8255 33.1558 31.683 33.6783 31.398L43.6058 26.0464C44.3342 25.6505 44.7775 24.8905 44.7775 24.0197C44.7775 23.1489 44.3342 22.3889 43.6058 21.993Z" fill="#163930"/>
<path opacity="0.4" d="M28.6908 33.2505L19.4441 28.6272C18.7316 28.2788 17.9083 28.3105 17.2433 28.7222C16.5624 29.1497 16.1666 29.8622 16.1666 30.6538V39.378C16.1666 40.8822 17.0058 42.2438 18.3516 42.9247L27.5824 47.548C27.8991 47.7063 28.2474 47.7855 28.5958 47.7855C29.0074 47.7855 29.4191 47.6747 29.7833 47.453C30.4641 47.0413 30.8599 46.313 30.8599 45.5213V36.7972C30.8758 35.2772 30.0366 33.9155 28.6908 33.2505Z" fill="#163930"/>
<path opacity="0.4" d="M46.7566 28.7225C46.0758 28.3108 45.2525 28.2633 44.5558 28.6275L35.325 33.2508C33.9792 33.9316 33.14 35.2775 33.14 36.7975V45.5216C33.14 46.3133 33.5358 47.0416 34.2166 47.4533C34.5808 47.675 34.9925 47.7858 35.4041 47.7858C35.7525 47.7858 36.1008 47.7066 36.4175 47.5483L45.6483 42.925C46.9942 42.2441 47.8333 40.8983 47.8333 39.3783V30.6541C47.8333 29.8625 47.4375 29.15 46.7566 28.7225Z" fill="#163930"/>
</svg>
