<svg width="64" height="64" viewBox="0 0 64 64" fill="none" xmlns="http://www.w3.org/2000/svg">
<rect width="64" height="64" rx="32" fill="#E8EBEA"/>
<path opacity="0.4" d="M38.6341 16.167H25.3658C19.6025 16.167 16.1666 19.6028 16.1666 25.3662V38.6187C16.1666 44.3978 19.6025 47.8337 25.3658 47.8337H38.6183C44.3816 47.8337 47.8175 44.3978 47.8175 38.6345V25.3662C47.8333 19.6028 44.3975 16.167 38.6341 16.167Z" fill="#163930"/>
<path d="M23.8933 42.925C23.2441 42.925 22.7058 42.3866 22.7058 41.7375V38.46C22.7058 37.8108 23.2441 37.2725 23.8933 37.2725C24.5425 37.2725 25.0808 37.8108 25.0808 38.46V41.7375C25.0808 42.4025 24.5425 42.925 23.8933 42.925Z" fill="#163930"/>
<path d="M32 42.9253C31.3508 42.9253 30.8125 42.387 30.8125 41.7378V35.167C30.8125 34.5178 31.3508 33.9795 32 33.9795C32.6491 33.9795 33.1875 34.5178 33.1875 35.167V41.7378C33.1875 42.4028 32.6491 42.9253 32 42.9253Z" fill="#163930"/>
<path d="M40.1066 42.9252C39.4575 42.9252 38.9191 42.3869 38.9191 41.7377V31.8894C38.9191 31.2402 39.4575 30.7019 40.1066 30.7019C40.7558 30.7019 41.2941 31.2402 41.2941 31.8894V41.7377C41.2941 42.4027 40.7716 42.9252 40.1066 42.9252Z" fill="#163930"/>
<path d="M41.2941 22.2154C41.2941 22.1363 41.2625 22.0413 41.2466 21.9621C41.2308 21.8988 41.215 21.8196 41.1991 21.7563C41.1675 21.6929 41.12 21.6454 41.0883 21.5821C41.0408 21.5188 40.9933 21.4396 40.93 21.3921C40.9141 21.3763 40.9141 21.3604 40.8983 21.3604C40.8508 21.3288 40.8033 21.3129 40.7558 21.2813C40.6925 21.2338 40.6133 21.1863 40.5341 21.1546C40.455 21.1229 40.3758 21.1229 40.2966 21.1071C40.2333 21.0913 40.1858 21.0754 40.1225 21.0754H35.4833C34.8341 21.0754 34.2958 21.6138 34.2958 22.2629C34.2958 22.9121 34.8341 23.4504 35.4833 23.4504H37.4625C33.6941 27.4088 28.9441 30.1954 23.6083 31.5413C22.975 31.6996 22.5791 32.3488 22.7375 32.9821C22.8641 33.5204 23.355 33.8846 23.8933 33.8846C23.9883 33.8846 24.0833 33.8688 24.1783 33.8529C29.8308 32.4438 34.8816 29.5146 38.9191 25.3663V26.9021C38.9191 27.5513 39.4575 28.0896 40.1066 28.0896C40.7558 28.0896 41.2941 27.5513 41.2941 26.9021V22.2629C41.2941 22.2471 41.2941 22.2313 41.2941 22.2154Z" fill="#163930"/>
</svg>
