<svg width="65" height="64" viewBox="0 0 65 64" fill="none" xmlns="http://www.w3.org/2000/svg">
<rect x="0.666626" width="64" height="64" rx="32" fill="#E8EBEA"/>
<path opacity="0.4" d="M39.3008 16.167H26.0325C20.2691 16.167 16.8333 19.6028 16.8333 25.3662V38.6187C16.8333 44.3978 20.2691 47.8337 26.0325 47.8337H39.285C45.0483 47.8337 48.4841 44.3978 48.4841 38.6345V25.3662C48.5 19.6028 45.0641 16.167 39.3008 16.167Z" fill="#163930"/>
<path d="M28.8666 37.9854C28.5658 37.9854 28.265 37.8745 28.0275 37.637L24.085 33.6945C23.1508 32.7604 23.1508 31.2562 24.085 30.322L28.0275 26.3795C28.4866 25.9204 29.2466 25.9204 29.7058 26.3795C30.165 26.8387 30.165 27.5987 29.7058 28.0579L25.7633 32.0004L29.7058 35.9587C30.165 36.4179 30.165 37.1779 29.7058 37.637C29.4683 37.8587 29.1675 37.9854 28.8666 37.9854Z" fill="#163930"/>
<path d="M36.4666 37.9846C36.1658 37.9846 35.865 37.8738 35.6275 37.6363C35.1683 37.1771 35.1683 36.4171 35.6275 35.9579L39.57 31.9996L35.6275 28.0413C35.1683 27.5821 35.1683 26.8221 35.6275 26.3629C36.0866 25.9038 36.8466 25.9038 37.3058 26.3629L41.2483 30.3054C42.1825 31.2396 42.1825 32.7438 41.2483 33.6779L37.3058 37.6204C37.0841 37.8579 36.7675 37.9846 36.4666 37.9846Z" fill="#163930"/>
<path d="M31.4109 35.1743C31.3109 35.1743 31.2109 35.1543 31.1209 35.1143C30.7409 34.9543 30.5609 34.5143 30.7309 34.1243L32.7309 29.4543C32.8909 29.0743 33.3309 28.8943 33.7109 29.0643C34.0909 29.2243 34.2709 29.6643 34.1009 30.0543L32.1009 34.7243C31.9809 35.0043 31.7009 35.1743 31.4109 35.1743Z" fill="#14342C"/>
</svg>
