<svg width="64" height="64" viewBox="0 0 64 64" fill="none" xmlns="http://www.w3.org/2000/svg">
<rect width="64" height="64" rx="32" fill="white"/>
<path d="M26.6119 24.3235L32 16.2415L37.3889 24.3251L42.839 32.5L37.3881 40.6761L32 48.7585L26.6111 40.6749L26.4996 40.7492L26.6111 40.6749L21.161 32.5L26.6119 24.3235Z" fill="white" stroke="white" strokeWidth="0.267949"/>
<path d="M47.3108 24.0045C46.2975 20.5687 43.4316 17.7029 39.9958 16.6895C37.3833 15.9295 35.5783 15.9929 34.3275 16.927C32.8233 18.0512 32.6491 20.0779 32.6491 21.5187V25.4612C32.6491 29.3562 34.4225 31.3354 37.9058 31.3354H42.45C43.875 31.3354 45.9175 31.1612 47.0416 29.657C48.0075 28.422 48.0866 26.617 47.3108 24.0045Z" fill="#163930"/>
<path opacity="0.4" d="M42.9408 34.1538C42.5291 33.6788 41.9275 33.4096 41.31 33.4096H35.6416C32.855 33.4096 30.5908 31.1455 30.5908 28.3588V22.6905C30.5908 22.073 30.3216 21.4713 29.8466 21.0596C29.3875 20.648 28.7541 20.458 28.1525 20.5371C24.4316 21.0121 21.0116 23.0546 18.7791 26.1263C16.5308 29.2138 15.7075 32.9821 16.42 36.7505C17.4491 42.1971 21.8033 46.5513 27.2658 47.5805C28.1366 47.7547 29.0075 47.8338 29.8783 47.8338C32.7441 47.8338 35.515 46.9471 37.8741 45.2213C40.9458 42.9888 42.9883 39.5688 43.4633 35.848C43.5425 35.2305 43.3525 34.613 42.9408 34.1538Z" fill="#163930"/>
</svg>
