<svg width="192" height="192" viewBox="0 0 192 192" fill="none" xmlns="http://www.w3.org/2000/svg">
<path d="M66.8376 99.2978C73.7496 89.1218 67.1735 79.4739 56.6135 84.2739C47.1575 88.5939 40.2935 98.6737 38.4695 110.962C37.0295 120.514 58.3416 111.73 66.8376 99.2978ZM46.8216 106.258C50.1816 98.3858 55.0296 92.2899 60.4056 89.1699C63.2856 87.4899 63.6215 87.682 63.0935 90.706C62.4215 94.21 53.7335 104.674 48.6935 107.89C45.2375 110.098 45.1896 110.098 46.8216 106.258Z" fill="black"/>
<path d="M139.366 74.9132C128.662 77.8412 118.006 87.2011 118.006 93.7771C118.006 96.8491 120.982 99.1051 122.23 96.8971C122.614 96.2251 122.998 96.2731 125.686 97.6171C132.934 101.265 145.606 95.121 150.358 85.761C154.102 78.417 148.15 72.5132 139.366 74.9132ZM144.31 81.0093C142.39 86.5773 126.358 96.9933 125.014 93.4893C124.294 91.6653 134.278 83.7934 140.998 80.8654C144.982 79.0894 144.934 79.1373 144.31 81.0093Z" fill="black"/>
<path d="M57.7655 118.93C52.0055 120.994 42.6455 131.458 42.6455 135.874C42.6455 136.21 41.8775 138.082 40.9655 140.002C35.9735 150.418 47.4455 154.21 57.8615 145.618C73.9415 132.322 73.8935 113.17 57.7655 118.93ZM63.5255 125.314C60.1175 136.594 44.9494 146.146 46.9174 144.322C46.2454 144.562 45.5254 143.986 45.6694 143.266C46.8694 137.362 54.9814 127.474 61.5574 123.97C64.0054 122.674 64.2935 122.866 63.5255 125.314Z" fill="black"/>
<path d="M141.669 102.226C129.237 106.114 113.878 121.042 117.526 125.65C122.662 132.178 140.71 125.218 150.886 112.738C157.126 105.058 151.845 99.01 141.669 102.226ZM146.613 108.274C143.925 113.266 123.429 126.61 121.269 125.218C119.829 124.306 120.933 122.53 122.709 122.818C124.485 123.154 124.582 123.058 127.462 119.842C131.11 115.762 137.205 110.386 142.053 107.698C146.373 105.346 147.333 106.978 146.613 108.274Z" fill="black"/>
<path d="M133.269 65.41C150.309 55.234 151.942 38.338 135.526 42.37C124.822 45.01 115.174 55.1379 113.062 59.3139C110.95 63.5859 111.91 66.466 115.366 65.89C116.038 65.794 116.566 65.8419 116.566 66.0339C116.566 69.6819 126.789 69.298 133.269 65.41ZM126.358 55.2818C131.686 50.7698 140.086 46.1621 140.086 47.7461C140.086 50.4341 128.47 61.1379 123.046 63.3939C119.638 64.7859 122.038 58.9298 126.358 55.2818Z" fill="black"/>
<path d="M76.4855 103.33C76.8695 102.898 78.8375 99.2976 79.0295 99.0096C79.5575 100.69 80.9495 102.034 82.6295 102.514C88.1975 104.146 95.2535 99.9694 103.126 90.1774C106.102 86.4814 107.685 83.5534 107.877 81.2974C109.029 68.2414 76.2455 78.2734 74.9015 99.2974C74.7095 102.417 75.6215 104.722 76.4855 103.33ZM87.3815 88.4014C94.3895 81.3454 102.838 76.6416 101.926 80.2896C101.158 83.4576 96.9335 88.1616 92.5655 91.8096C89.6375 94.3056 84.2615 98.2414 83.1095 97.0414C81.3335 95.1694 87.3335 88.4494 87.3815 88.4014Z" fill="black"/>
<path d="M82.3894 75.1534C90.9334 75.1534 105.525 61.4255 105.525 53.4095C105.525 48.2735 98.5175 45.3936 91.8455 47.7456C73.8935 54.0816 66.6454 75.1534 82.3894 75.1534ZM82.4374 67.5695C84.0694 61.9055 88.3894 56.8655 94.2934 53.6495C97.7974 51.7295 97.8935 51.7295 97.2215 53.6495C95.3975 59.1215 80.9974 72.6575 82.4374 67.5695Z" fill="black"/>
<path d="M96.8856 106.93C85.8936 110.77 72.1656 127.906 76.9656 131.698C77.6376 132.226 78.1656 132.994 78.1656 133.426C78.1656 143.746 101.494 133.378 107.542 120.418C112.006 111.01 106.15 103.666 96.8856 106.93ZM101.926 114.562C100.006 120.466 87.5735 132.13 83.2535 132.274C80.3255 132.37 84.0215 127.138 84.7415 126.034C87.0935 122.338 95.2535 115.09 99.8615 112.546C102.79 110.914 103.03 111.202 101.926 114.562Z" fill="black"/>
</svg>
