<svg width="1443" height="1295" viewBox="0 0 1443 1295" fill="none" xmlns="http://www.w3.org/2000/svg">
<g clip-path="url(#clip0_188_8418)">
<g clip-path="url(#clip1_188_8418)">
<rect width="1443" height="1295" fill="url(#paint0_radial_188_8418)"/>
<g opacity="0.2">
<g clip-path="url(#clip2_188_8418)">
<rect x="-402" y="-4" width="2248" height="1178.5" rx="36.3313" fill="white" fill-opacity="0.1"/>
<g clip-path="url(#clip3_188_8418)">
<rect x="-80.8572" y="-3.99994" width="107.048" height="107.048" stroke="white" stroke-opacity="0.12" stroke-width="2.14095"/>
<rect x="26.1904" y="-3.99994" width="107.048" height="107.048" stroke="white" stroke-opacity="0.12" stroke-width="2.14095"/>
<rect x="133.238" y="-3.99988" width="107.048" height="107.048" stroke="white" stroke-opacity="0.12" stroke-width="2.14095"/>
<rect x="240.286" y="-3.99994" width="107.048" height="107.048" stroke="white" stroke-opacity="0.12" stroke-width="2.14095"/>
<rect x="347.333" y="-3.99988" width="107.048" height="107.048" stroke="white" stroke-opacity="0.12" stroke-width="2.14095"/>
<rect x="454.381" y="-3.99994" width="107.048" height="107.048" stroke="white" stroke-opacity="0.12" stroke-width="2.14095"/>
<rect x="561.428" y="-3.99988" width="107.048" height="107.048" stroke="white" stroke-opacity="0.12" stroke-width="2.14095"/>
<rect x="668.477" y="-3.99988" width="107.048" height="107.048" stroke="white" stroke-opacity="0.12" stroke-width="2.14095"/>
<rect x="775.523" y="-3.99988" width="107.048" height="107.048" stroke="white" stroke-opacity="0.12" stroke-width="2.14095"/>
<rect x="882.572" y="-3.99988" width="107.048" height="107.048" stroke="white" stroke-opacity="0.12" stroke-width="2.14095"/>
<rect x="989.619" y="-3.99994" width="107.048" height="107.048" stroke="white" stroke-opacity="0.12" stroke-width="2.14095"/>
<rect x="1096.67" y="-3.99988" width="107.048" height="107.048" stroke="white" stroke-opacity="0.12" stroke-width="2.14095"/>
<rect x="1203.71" y="-3.99994" width="107.048" height="107.048" stroke="white" stroke-opacity="0.12" stroke-width="2.14095"/>
<rect x="1310.76" y="-3.99988" width="107.048" height="107.048" stroke="white" stroke-opacity="0.12" stroke-width="2.14095"/>
<rect x="1417.81" y="-3.99988" width="107.048" height="107.048" stroke="white" stroke-opacity="0.12" stroke-width="2.14095"/>
<rect x="-80.8572" y="103.047" width="107.048" height="107.048" stroke="white" stroke-opacity="0.12" stroke-width="2.14095"/>
<rect x="26.1904" y="103.047" width="107.048" height="107.048" stroke="white" stroke-opacity="0.12" stroke-width="2.14095"/>
<rect x="133.238" y="103.047" width="107.048" height="107.048" stroke="white" stroke-opacity="0.12" stroke-width="2.14095"/>
<rect x="240.286" y="103.047" width="107.048" height="107.048" stroke="white" stroke-opacity="0.12" stroke-width="2.14095"/>
<rect x="347.333" y="103.047" width="107.048" height="107.048" stroke="white" stroke-opacity="0.12" stroke-width="2.14095"/>
<rect x="454.381" y="103.047" width="107.048" height="107.048" stroke="white" stroke-opacity="0.12" stroke-width="2.14095"/>
<rect x="561.428" y="103.047" width="107.048" height="107.048" fill="white" fill-opacity="0.12" stroke="white" stroke-opacity="0.12" stroke-width="2.14095"/>
<rect x="668.477" y="103.047" width="107.048" height="107.048" stroke="white" stroke-opacity="0.12" stroke-width="2.14095"/>
<rect x="775.523" y="103.047" width="107.048" height="107.048" stroke="white" stroke-opacity="0.12" stroke-width="2.14095"/>
<rect x="882.572" y="103.047" width="107.048" height="107.048" stroke="white" stroke-opacity="0.12" stroke-width="2.14095"/>
<rect x="989.619" y="103.047" width="107.048" height="107.048" stroke="white" stroke-opacity="0.12" stroke-width="2.14095"/>
<rect x="1096.67" y="103.047" width="107.048" height="107.048" stroke="white" stroke-opacity="0.12" stroke-width="2.14095"/>
<rect x="1203.71" y="103.047" width="107.048" height="107.048" stroke="white" stroke-opacity="0.12" stroke-width="2.14095"/>
<rect x="1310.76" y="103.047" width="107.048" height="107.048" stroke="white" stroke-opacity="0.12" stroke-width="2.14095"/>
<rect x="1417.81" y="103.047" width="107.048" height="107.048" stroke="white" stroke-opacity="0.12" stroke-width="2.14095"/>
<rect x="-80.8572" y="210.094" width="107.048" height="107.048" stroke="white" stroke-opacity="0.12" stroke-width="2.14095"/>
<rect x="26.1904" y="210.094" width="107.048" height="107.048" stroke="white" stroke-opacity="0.12" stroke-width="2.14095"/>
<rect x="133.238" y="210.094" width="107.048" height="107.048" stroke="white" stroke-opacity="0.12" stroke-width="2.14095"/>
<rect x="240.286" y="210.094" width="107.048" height="107.048" stroke="white" stroke-opacity="0.12" stroke-width="2.14095"/>
<rect x="347.333" y="210.094" width="107.048" height="107.048" stroke="white" stroke-opacity="0.12" stroke-width="2.14095"/>
<rect x="454.381" y="210.094" width="107.048" height="107.048" stroke="white" stroke-opacity="0.12" stroke-width="2.14095"/>
<rect x="561.428" y="210.094" width="107.048" height="107.048" stroke="white" stroke-opacity="0.12" stroke-width="2.14095"/>
<rect x="668.477" y="210.094" width="107.048" height="107.048" stroke="white" stroke-opacity="0.12" stroke-width="2.14095"/>
<rect x="775.523" y="210.094" width="107.048" height="107.048" stroke="white" stroke-opacity="0.12" stroke-width="2.14095"/>
<rect x="882.572" y="210.094" width="107.048" height="107.048" stroke="white" stroke-opacity="0.12" stroke-width="2.14095"/>
<rect x="989.619" y="210.094" width="107.048" height="107.048" stroke="white" stroke-opacity="0.12" stroke-width="2.14095"/>
<rect x="1096.67" y="210.094" width="107.048" height="107.048" stroke="white" stroke-opacity="0.12" stroke-width="2.14095"/>
<rect x="1203.71" y="210.094" width="107.048" height="107.048" stroke="white" stroke-opacity="0.12" stroke-width="2.14095"/>
<rect x="1310.76" y="210.094" width="107.048" height="107.048" fill="white" fill-opacity="0.12" stroke="white" stroke-opacity="0.12" stroke-width="2.14095"/>
<rect x="1417.81" y="210.094" width="107.048" height="107.048" stroke="white" stroke-opacity="0.12" stroke-width="2.14095"/>
<rect x="-80.8572" y="317.141" width="107.048" height="107.048" stroke="white" stroke-opacity="0.12" stroke-width="2.14095"/>
<rect x="26.1904" y="317.141" width="107.048" height="107.048" stroke="white" stroke-opacity="0.12" stroke-width="2.14095"/>
<rect x="133.238" y="317.141" width="107.048" height="107.048" stroke="white" stroke-opacity="0.12" stroke-width="2.14095"/>
<rect x="240.286" y="317.141" width="107.048" height="107.048" stroke="white" stroke-opacity="0.12" stroke-width="2.14095"/>
<rect x="347.333" y="317.141" width="107.048" height="107.048" stroke="white" stroke-opacity="0.12" stroke-width="2.14095"/>
<rect x="454.381" y="317.141" width="107.048" height="107.048" stroke="white" stroke-opacity="0.12" stroke-width="2.14095"/>
<rect x="561.428" y="317.141" width="107.048" height="107.048" stroke="white" stroke-opacity="0.12" stroke-width="2.14095"/>
<rect x="668.477" y="317.141" width="107.048" height="107.048" stroke="white" stroke-opacity="0.12" stroke-width="2.14095"/>
<rect x="775.523" y="317.141" width="107.048" height="107.048" stroke="white" stroke-opacity="0.12" stroke-width="2.14095"/>
<rect x="882.572" y="317.141" width="107.048" height="107.048" stroke="white" stroke-opacity="0.12" stroke-width="2.14095"/>
<rect x="989.619" y="317.141" width="107.048" height="107.048" stroke="white" stroke-opacity="0.12" stroke-width="2.14095"/>
<rect x="1096.67" y="317.141" width="107.048" height="107.048" stroke="white" stroke-opacity="0.12" stroke-width="2.14095"/>
<rect x="1203.71" y="317.141" width="107.048" height="107.048" stroke="white" stroke-opacity="0.12" stroke-width="2.14095"/>
<rect x="1310.76" y="317.141" width="107.048" height="107.048" stroke="white" stroke-opacity="0.12" stroke-width="2.14095"/>
<rect x="1417.81" y="317.141" width="107.048" height="107.048" stroke="white" stroke-opacity="0.12" stroke-width="2.14095"/>
<rect x="-80.8572" y="424.188" width="107.048" height="107.048" fill="white" fill-opacity="0.12" stroke="white" stroke-opacity="0.12" stroke-width="2.14095"/>
<rect x="26.1904" y="424.188" width="107.048" height="107.048" stroke="white" stroke-opacity="0.12" stroke-width="2.14095"/>
<rect x="133.238" y="424.187" width="107.048" height="107.048" stroke="white" stroke-opacity="0.12" stroke-width="2.14095"/>
<rect x="240.286" y="424.188" width="107.048" height="107.048" stroke="white" stroke-opacity="0.12" stroke-width="2.14095"/>
<rect x="347.333" y="424.187" width="107.048" height="107.048" stroke="white" stroke-opacity="0.12" stroke-width="2.14095"/>
<rect x="454.381" y="424.188" width="107.048" height="107.048" stroke="white" stroke-opacity="0.12" stroke-width="2.14095"/>
<rect x="561.428" y="424.187" width="107.048" height="107.048" stroke="white" stroke-opacity="0.12" stroke-width="2.14095"/>
<rect x="668.477" y="424.187" width="107.048" height="107.048" stroke="white" stroke-opacity="0.12" stroke-width="2.14095"/>
<rect x="775.523" y="424.187" width="107.048" height="107.048" stroke="white" stroke-opacity="0.12" stroke-width="2.14095"/>
<rect x="882.572" y="424.187" width="107.048" height="107.048" fill="white" fill-opacity="0.12" stroke="white" stroke-opacity="0.12" stroke-width="2.14095"/>
<rect x="989.619" y="424.188" width="107.048" height="107.048" stroke="white" stroke-opacity="0.12" stroke-width="2.14095"/>
<rect x="1096.67" y="424.187" width="107.048" height="107.048" stroke="white" stroke-opacity="0.12" stroke-width="2.14095"/>
<rect x="1203.71" y="424.188" width="107.048" height="107.048" stroke="white" stroke-opacity="0.12" stroke-width="2.14095"/>
<rect x="1310.76" y="424.187" width="107.048" height="107.048" stroke="white" stroke-opacity="0.12" stroke-width="2.14095"/>
<rect x="1417.81" y="424.187" width="107.048" height="107.048" stroke="white" stroke-opacity="0.12" stroke-width="2.14095"/>
<rect x="-80.8572" y="531.234" width="107.048" height="107.048" stroke="white" stroke-opacity="0.12" stroke-width="2.14095"/>
<rect x="26.1904" y="531.234" width="107.048" height="107.048" stroke="white" stroke-opacity="0.12" stroke-width="2.14095"/>
<rect x="133.238" y="531.234" width="107.048" height="107.048" stroke="white" stroke-opacity="0.12" stroke-width="2.14095"/>
<rect x="240.286" y="531.234" width="107.048" height="107.048" stroke="white" stroke-opacity="0.12" stroke-width="2.14095"/>
<rect x="347.333" y="531.234" width="107.048" height="107.048" stroke="white" stroke-opacity="0.12" stroke-width="2.14095"/>
<rect x="454.381" y="531.234" width="107.048" height="107.048" stroke="white" stroke-opacity="0.12" stroke-width="2.14095"/>
<rect x="561.428" y="531.234" width="107.048" height="107.048" stroke="white" stroke-opacity="0.12" stroke-width="2.14095"/>
<rect x="668.477" y="531.234" width="107.048" height="107.048" stroke="white" stroke-opacity="0.12" stroke-width="2.14095"/>
<rect x="775.523" y="531.234" width="107.048" height="107.048" stroke="white" stroke-opacity="0.12" stroke-width="2.14095"/>
<rect x="882.572" y="531.234" width="107.048" height="107.048" stroke="white" stroke-opacity="0.12" stroke-width="2.14095"/>
<rect x="989.619" y="531.234" width="107.048" height="107.048" stroke="white" stroke-opacity="0.12" stroke-width="2.14095"/>
<rect x="1096.67" y="531.234" width="107.048" height="107.048" stroke="white" stroke-opacity="0.12" stroke-width="2.14095"/>
<rect x="1203.71" y="531.234" width="107.048" height="107.048" stroke="white" stroke-opacity="0.12" stroke-width="2.14095"/>
<rect x="1310.76" y="531.234" width="107.048" height="107.048" stroke="white" stroke-opacity="0.12" stroke-width="2.14095"/>
<rect x="1417.81" y="531.234" width="107.048" height="107.048" stroke="white" stroke-opacity="0.12" stroke-width="2.14095"/>
<rect x="-80.8572" y="638.289" width="107.048" height="107.048" stroke="white" stroke-opacity="0.12" stroke-width="2.14095"/>
<rect x="26.1904" y="638.289" width="107.048" height="107.048" stroke="white" stroke-opacity="0.12" stroke-width="2.14095"/>
<rect x="133.238" y="638.289" width="107.048" height="107.048" stroke="white" stroke-opacity="0.12" stroke-width="2.14095"/>
<rect x="240.286" y="638.289" width="107.048" height="107.048" stroke="white" stroke-opacity="0.12" stroke-width="2.14095"/>
<rect x="347.333" y="638.289" width="107.048" height="107.048" stroke="white" stroke-opacity="0.12" stroke-width="2.14095"/>
<rect x="454.381" y="638.289" width="107.048" height="107.048" stroke="white" stroke-opacity="0.12" stroke-width="2.14095"/>
<rect x="561.428" y="638.289" width="107.048" height="107.048" stroke="white" stroke-opacity="0.12" stroke-width="2.14095"/>
<rect x="668.477" y="638.289" width="107.048" height="107.048" stroke="white" stroke-opacity="0.12" stroke-width="2.14095"/>
<rect x="775.523" y="638.289" width="107.048" height="107.048" stroke="white" stroke-opacity="0.12" stroke-width="2.14095"/>
<rect x="882.572" y="638.289" width="107.048" height="107.048" stroke="white" stroke-opacity="0.12" stroke-width="2.14095"/>
<rect x="989.619" y="638.289" width="107.048" height="107.048" stroke="white" stroke-opacity="0.12" stroke-width="2.14095"/>
<rect x="1096.67" y="638.289" width="107.048" height="107.048" stroke="white" stroke-opacity="0.12" stroke-width="2.14095"/>
<rect x="1203.71" y="638.289" width="107.048" height="107.048" stroke="white" stroke-opacity="0.12" stroke-width="2.14095"/>
<rect x="1310.76" y="638.289" width="107.048" height="107.048" stroke="white" stroke-opacity="0.12" stroke-width="2.14095"/>
<rect x="1417.81" y="638.289" width="107.048" height="107.048" stroke="white" stroke-opacity="0.12" stroke-width="2.14095"/>
<rect x="-80.8572" y="745.336" width="107.048" height="107.048" stroke="white" stroke-opacity="0.12" stroke-width="2.14095"/>
<rect x="26.1904" y="745.336" width="107.048" height="107.048" stroke="white" stroke-opacity="0.12" stroke-width="2.14095"/>
<rect x="133.238" y="745.336" width="107.048" height="107.048" stroke="white" stroke-opacity="0.12" stroke-width="2.14095"/>
<rect x="240.286" y="745.336" width="107.048" height="107.048" stroke="white" stroke-opacity="0.12" stroke-width="2.14095"/>
<rect x="347.333" y="745.336" width="107.048" height="107.048" stroke="white" stroke-opacity="0.12" stroke-width="2.14095"/>
<rect x="454.381" y="745.336" width="107.048" height="107.048" fill="white" fill-opacity="0.12" stroke="white" stroke-opacity="0.12" stroke-width="2.14095"/>
<rect x="561.428" y="745.336" width="107.048" height="107.048" stroke="white" stroke-opacity="0.12" stroke-width="2.14095"/>
<rect x="668.477" y="745.336" width="107.048" height="107.048" stroke="white" stroke-opacity="0.12" stroke-width="2.14095"/>
<rect x="775.523" y="745.336" width="107.048" height="107.048" stroke="white" stroke-opacity="0.12" stroke-width="2.14095"/>
<rect x="882.572" y="745.336" width="107.048" height="107.048" stroke="white" stroke-opacity="0.12" stroke-width="2.14095"/>
<rect x="989.619" y="745.336" width="107.048" height="107.048" stroke="white" stroke-opacity="0.12" stroke-width="2.14095"/>
<rect x="1096.67" y="745.336" width="107.048" height="107.048" stroke="white" stroke-opacity="0.12" stroke-width="2.14095"/>
<rect x="1203.71" y="745.336" width="107.048" height="107.048" stroke="white" stroke-opacity="0.12" stroke-width="2.14095"/>
<rect x="1310.76" y="745.336" width="107.048" height="107.048" stroke="white" stroke-opacity="0.12" stroke-width="2.14095"/>
<rect x="1417.81" y="745.336" width="107.048" height="107.048" stroke="white" stroke-opacity="0.12" stroke-width="2.14095"/>
<rect x="-80.8572" y="852.383" width="107.048" height="107.048" stroke="white" stroke-opacity="0.12" stroke-width="2.14095"/>
<rect x="26.1904" y="852.383" width="107.048" height="107.048" fill="white" fill-opacity="0.12" stroke="white" stroke-opacity="0.12" stroke-width="2.14095"/>
<rect x="133.238" y="852.383" width="107.048" height="107.048" stroke="white" stroke-opacity="0.12" stroke-width="2.14095"/>
<rect x="240.286" y="852.383" width="107.048" height="107.048" stroke="white" stroke-opacity="0.12" stroke-width="2.14095"/>
<rect x="347.333" y="852.383" width="107.048" height="107.048" stroke="white" stroke-opacity="0.12" stroke-width="2.14095"/>
<rect x="454.381" y="852.383" width="107.048" height="107.048" stroke="white" stroke-opacity="0.12" stroke-width="2.14095"/>
<rect x="561.428" y="852.383" width="107.048" height="107.048" stroke="white" stroke-opacity="0.12" stroke-width="2.14095"/>
<rect x="668.477" y="852.383" width="107.048" height="107.048" stroke="white" stroke-opacity="0.12" stroke-width="2.14095"/>
<rect x="775.523" y="852.383" width="107.048" height="107.048" stroke="white" stroke-opacity="0.12" stroke-width="2.14095"/>
<rect x="882.572" y="852.383" width="107.048" height="107.048" stroke="white" stroke-opacity="0.12" stroke-width="2.14095"/>
<rect x="989.619" y="852.383" width="107.048" height="107.048" stroke="white" stroke-opacity="0.12" stroke-width="2.14095"/>
<rect x="1096.67" y="852.383" width="107.048" height="107.048" stroke="white" stroke-opacity="0.12" stroke-width="2.14095"/>
<rect x="1203.71" y="852.383" width="107.048" height="107.048" stroke="white" stroke-opacity="0.12" stroke-width="2.14095"/>
<rect x="1310.76" y="852.383" width="107.048" height="107.048" stroke="white" stroke-opacity="0.12" stroke-width="2.14095"/>
<rect x="1417.81" y="852.383" width="107.048" height="107.048" stroke="white" stroke-opacity="0.12" stroke-width="2.14095"/>
<rect x="-80.8572" y="959.43" width="107.048" height="107.048" stroke="white" stroke-opacity="0.12" stroke-width="2.14095"/>
<rect x="26.1904" y="959.43" width="107.048" height="107.048" stroke="white" stroke-opacity="0.12" stroke-width="2.14095"/>
<rect x="133.238" y="959.43" width="107.048" height="107.048" stroke="white" stroke-opacity="0.12" stroke-width="2.14095"/>
<rect x="240.286" y="959.43" width="107.048" height="107.048" stroke="white" stroke-opacity="0.12" stroke-width="2.14095"/>
<rect x="347.333" y="959.43" width="107.048" height="107.048" stroke="white" stroke-opacity="0.12" stroke-width="2.14095"/>
<rect x="454.381" y="959.43" width="107.048" height="107.048" stroke="white" stroke-opacity="0.12" stroke-width="2.14095"/>
<rect x="561.428" y="959.43" width="107.048" height="107.048" stroke="white" stroke-opacity="0.12" stroke-width="2.14095"/>
<rect x="668.477" y="959.43" width="107.048" height="107.048" stroke="white" stroke-opacity="0.12" stroke-width="2.14095"/>
<rect x="775.523" y="959.43" width="107.048" height="107.048" stroke="white" stroke-opacity="0.12" stroke-width="2.14095"/>
<rect x="882.572" y="959.43" width="107.048" height="107.048" stroke="white" stroke-opacity="0.12" stroke-width="2.14095"/>
<rect x="989.619" y="959.43" width="107.048" height="107.048" stroke="white" stroke-opacity="0.12" stroke-width="2.14095"/>
<rect x="1096.67" y="959.43" width="107.048" height="107.048" stroke="white" stroke-opacity="0.12" stroke-width="2.14095"/>
<rect x="1203.71" y="959.43" width="107.048" height="107.048" stroke="white" stroke-opacity="0.12" stroke-width="2.14095"/>
<rect x="1310.76" y="959.43" width="107.048" height="107.048" stroke="white" stroke-opacity="0.12" stroke-width="2.14095"/>
<rect x="1417.81" y="959.43" width="107.048" height="107.048" stroke="white" stroke-opacity="0.12" stroke-width="2.14095"/>
<rect x="-80.8572" y="1066.48" width="107.048" height="107.048" stroke="white" stroke-opacity="0.12" stroke-width="2.14095"/>
<rect x="26.1904" y="1066.48" width="107.048" height="107.048" stroke="white" stroke-opacity="0.12" stroke-width="2.14095"/>
<rect x="133.238" y="1066.48" width="107.048" height="107.048" stroke="white" stroke-opacity="0.12" stroke-width="2.14095"/>
<rect x="240.286" y="1066.48" width="107.048" height="107.048" stroke="white" stroke-opacity="0.12" stroke-width="2.14095"/>
<rect x="347.333" y="1066.48" width="107.048" height="107.048" stroke="white" stroke-opacity="0.12" stroke-width="2.14095"/>
<rect x="454.381" y="1066.48" width="107.048" height="107.048" stroke="white" stroke-opacity="0.12" stroke-width="2.14095"/>
<rect x="561.428" y="1066.48" width="107.048" height="107.048" stroke="white" stroke-opacity="0.12" stroke-width="2.14095"/>
<rect x="668.477" y="1066.48" width="107.048" height="107.048" stroke="white" stroke-opacity="0.12" stroke-width="2.14095"/>
<rect x="775.523" y="1066.48" width="107.048" height="107.048" stroke="white" stroke-opacity="0.12" stroke-width="2.14095"/>
<rect x="882.572" y="1066.48" width="107.048" height="107.048" stroke="white" stroke-opacity="0.12" stroke-width="2.14095"/>
<rect x="989.619" y="1066.48" width="107.048" height="107.048" stroke="white" stroke-opacity="0.12" stroke-width="2.14095"/>
<rect x="1096.67" y="1066.48" width="107.048" height="107.048" stroke="white" stroke-opacity="0.12" stroke-width="2.14095"/>
<rect x="1203.71" y="1066.48" width="107.048" height="107.048" stroke="white" stroke-opacity="0.12" stroke-width="2.14095"/>
<rect x="1310.76" y="1066.48" width="107.048" height="107.048" stroke="white" stroke-opacity="0.12" stroke-width="2.14095"/>
<rect x="1417.81" y="1066.48" width="107.048" height="107.048" stroke="white" stroke-opacity="0.12" stroke-width="2.14095"/>
<rect x="-80.8572" y="1173.52" width="107.048" height="107.048" stroke="white" stroke-opacity="0.12" stroke-width="2.14095"/>
<rect x="26.1904" y="1173.52" width="107.048" height="107.048" stroke="white" stroke-opacity="0.12" stroke-width="2.14095"/>
<rect x="133.238" y="1173.52" width="107.048" height="107.048" stroke="white" stroke-opacity="0.12" stroke-width="2.14095"/>
<rect x="240.286" y="1173.52" width="107.048" height="107.048" stroke="white" stroke-opacity="0.12" stroke-width="2.14095"/>
<rect x="347.333" y="1173.52" width="107.048" height="107.048" stroke="white" stroke-opacity="0.12" stroke-width="2.14095"/>
<rect x="454.381" y="1173.52" width="107.048" height="107.048" stroke="white" stroke-opacity="0.12" stroke-width="2.14095"/>
<rect x="561.428" y="1173.52" width="107.048" height="107.048" stroke="white" stroke-opacity="0.12" stroke-width="2.14095"/>
<rect x="668.477" y="1173.52" width="107.048" height="107.048" stroke="white" stroke-opacity="0.12" stroke-width="2.14095"/>
<rect x="775.523" y="1173.52" width="107.048" height="107.048" stroke="white" stroke-opacity="0.12" stroke-width="2.14095"/>
<rect x="882.572" y="1173.52" width="107.048" height="107.048" stroke="white" stroke-opacity="0.12" stroke-width="2.14095"/>
<rect x="989.619" y="1173.52" width="107.048" height="107.048" stroke="white" stroke-opacity="0.12" stroke-width="2.14095"/>
<rect x="1096.67" y="1173.52" width="107.048" height="107.048" stroke="white" stroke-opacity="0.12" stroke-width="2.14095"/>
<rect x="1203.71" y="1173.52" width="107.048" height="107.048" stroke="white" stroke-opacity="0.12" stroke-width="2.14095"/>
<rect x="1310.76" y="1173.52" width="107.048" height="107.048" stroke="white" stroke-opacity="0.12" stroke-width="2.14095"/>
<rect x="1417.81" y="1173.52" width="107.048" height="107.048" stroke="white" stroke-opacity="0.12" stroke-width="2.14095"/>
</g>
</g>
</g>
</g>
</g>
<defs>
<radialGradient id="paint0_radial_188_8418" cx="0" cy="0" r="1" gradientUnits="userSpaceOnUse" gradientTransform="translate(721.5 647.5) rotate(40.9378) scale(988.19 1132.33)">
<stop stop-color="#0D7D61"/>
<stop offset="1" stop-color="#14342C"/>
</radialGradient>
<clipPath id="clip0_188_8418">
<rect width="1443" height="1295" fill="white"/>
</clipPath>
<clipPath id="clip1_188_8418">
<rect width="1443" height="1295" fill="white"/>
</clipPath>
<clipPath id="clip2_188_8418">
<rect x="-402" y="-4" width="2248" height="1178.5" rx="36.3313" fill="white"/>
</clipPath>
<clipPath id="clip3_188_8418">
<rect width="2248" height="1438.72" fill="white" transform="translate(-402 -3.99994)"/>
</clipPath>
</defs>
</svg>
