<svg width="435" height="317" viewBox="0 0 435 317" fill="none" xmlns="http://www.w3.org/2000/svg">
<path d="M407.5 190.21C401.1 188.61 339.167 190.21 309 191.21L317.5 224.71C351.167 221.377 418.5 217.21 423.5 211.21C427.407 206.521 415.5 192.21 407.5 190.21Z" fill="#E09C7C"/>
<path d="M361.016 233.281C365.624 233.281 369.359 225.876 369.359 216.742C369.359 207.608 365.624 200.203 361.016 200.203" stroke="#404448" strokeWidth="2"/>
<rect width="85.4145" height="54.8057" transform="matrix(-1 0 0 1 394.097 139.609)" fill="#D5DDED"/>
<rect x="394.097" y="139.609" width="6.7771" height="54.8057" fill="#B9C1D3"/>
<rect x="216.683" y="78.7031" width="92" height="100" fill="#E6ECF8"/>
<rect width="92" height="9.03906" transform="matrix(1 0 0 -1 216.683 187.742)" fill="#535B70"/>
<path d="M216.683 78.7031H308.683L298.676 95.7148V178.703H216.683V78.7031Z" fill="white"/>
<rect width="104.668" height="79.1016" transform="matrix(-1 0 0 1 413.35 62.9531)" fill="white"/>
<rect width="70.0888" height="61.8984" transform="matrix(-1 0 0 1 395.62 71.7188)" fill="#D5DDED"/>
<path d="M395.62 71.7188H325.531V133.617H339.894V89.4649L395.62 71.7188Z" fill="#E0E6F2"/>
<rect width="4" height="61.8984" transform="matrix(-1 0 0 1 362.576 71.7188)" fill="#BAC5DC"/>
<rect width="2.96387" height="61.8984" transform="matrix(-1 0 0 1 328.495 71.7188)" fill="#727E9A"/>
<rect x="-1" y="1" width="68.0888" height="59.8984" transform="matrix(-1 0 0 1 393.62 71.7188)" stroke="#BAC5DC" strokeWidth="2"/>
<path d="M393.978 149H308.683V142.057H406.83L393.978 149Z" fill="#8891A6"/>
<rect width="104.668" height="2.44727" transform="matrix(-1 0 0 1 413.35 139.609)" fill="#D5DDED"/>
<rect width="120.146" height="46.9805" transform="matrix(1 0 0 -1 242.154 62.9531)" fill="white"/>
<rect width="104.667" height="2.75879" transform="matrix(1 0 0 -1 308.683 62.9531)" fill="#727E9A"/>
<path d="M308.683 60.2031H413.35L401.35 48.3691H308.683V60.2031Z" fill="#535B70"/>
<mask id="mask0_41_357" style="mask-type:alpha" maskUnits="userSpaceOnUse" x="308" y="48" width="106" height="13">
<path d="M308.683 60.2031H413.35L401.35 48.3691H308.683V60.2031Z" fill="#535B70"/>
</mask>
<g mask="url(#mask0_41_357)">
<path fill-rule="evenodd" clip-rule="evenodd" d="M389.785 52.3192C388.565 51.8728 387.226 51.8728 386.006 52.3192L384.661 52.8113C383.22 53.3385 381.639 53.339 380.198 52.8125L378.852 52.321C377.632 51.8755 376.294 51.8759 375.075 52.322L373.73 52.8141C372.288 53.3417 370.705 53.3417 369.263 52.8141L367.92 52.3227C366.7 51.8762 365.361 51.8762 364.141 52.3227L362.797 52.8141C361.355 53.3417 359.773 53.3417 358.331 52.8141L356.987 52.3227C355.767 51.8762 354.428 51.8762 353.208 52.3227L351.865 52.8141C350.423 53.3417 348.84 53.3417 347.398 52.8141L346.055 52.3227C344.834 51.8762 343.495 51.8762 342.275 52.3227L340.932 52.8141C339.49 53.3417 337.907 53.3417 336.465 52.8141L335.122 52.3227C333.902 51.8762 332.563 51.8762 331.342 52.3227L329.999 52.8141C328.557 53.3417 326.975 53.3417 325.533 52.8141L324.189 52.3227C322.969 51.8762 321.63 51.8762 320.41 52.3227L319.067 52.8141C317.624 53.3417 316.042 53.3417 314.6 52.8141L313.257 52.3227C312.036 51.8762 310.697 51.8762 309.477 52.3227L308.134 52.8141C306.692 53.3417 305.109 53.3417 303.667 52.8141L302.324 52.3227C301.104 51.8762 299.765 51.8762 298.544 52.3227L295.14 53.5684C294.88 53.6633 294.593 53.5299 294.498 53.2706C294.403 53.0113 294.537 52.7241 294.796 52.6293L298.201 51.3835C299.643 50.8559 301.225 50.8559 302.668 51.3835L304.011 51.875C305.231 52.3214 306.57 52.3214 307.79 51.875L309.134 51.3835C310.576 50.8559 312.158 50.8559 313.6 51.3835L314.943 51.875C316.164 52.3214 317.503 52.3214 318.723 51.875L320.066 51.3835C321.508 50.8559 323.091 50.8559 324.533 51.3835L325.876 51.875C327.096 52.3214 328.435 52.3214 329.656 51.875L330.999 51.3835C332.441 50.8559 334.023 50.8559 335.466 51.3835L336.809 51.875C338.029 52.3214 339.368 52.3214 340.588 51.875L341.932 51.3835C343.374 50.8559 344.956 50.8559 346.398 51.3835L347.742 51.875C348.962 52.3214 350.301 52.3214 351.521 51.875L352.864 51.3835C354.306 50.8559 355.889 50.8559 357.331 51.3835L358.674 51.875C359.894 52.3214 361.233 52.3214 362.454 51.875L363.797 51.3835C365.239 50.8559 366.822 50.8559 368.264 51.3835L369.607 51.875C370.827 52.3214 372.166 52.3214 373.386 51.875L374.731 51.3829C376.172 50.8557 377.753 50.8552 379.195 51.3817L380.541 51.8732C381.76 52.3187 383.098 52.3183 384.317 51.8722L385.662 51.3801C387.104 50.8525 388.687 50.8525 390.129 51.3801L391.472 51.8715C392.693 52.318 394.032 52.318 395.252 51.8715L396.595 51.3801C398.037 50.8525 399.62 50.8525 401.062 51.3801L402.405 51.8715C403.625 52.318 404.964 52.318 406.184 51.8715L407.528 51.3801C408.97 50.8525 410.552 50.8525 411.994 51.3801L415.399 52.6258C415.659 52.7207 415.792 53.0079 415.697 53.2672C415.602 53.5265 415.315 53.6598 415.056 53.5649L411.651 52.3192C410.431 51.8728 409.092 51.8728 407.871 52.3192L406.528 52.8107C405.086 53.3383 403.503 53.3383 402.061 52.8107L400.718 52.3192C399.498 51.8728 398.159 51.8728 396.939 52.3192L395.595 52.8107C394.153 53.3383 392.571 53.3383 391.129 52.8107L389.785 52.3192Z" fill="#2F3951"/>
<path fill-rule="evenodd" clip-rule="evenodd" d="M389.785 56.9442C388.565 56.4978 387.226 56.4978 386.006 56.9442L384.661 57.4363C383.22 57.9635 381.639 57.964 380.198 57.4375L378.852 56.946C377.632 56.5005 376.294 56.5009 375.075 56.947L373.73 57.4391C372.288 57.9667 370.705 57.9667 369.263 57.4391L367.92 56.9477C366.7 56.5012 365.361 56.5012 364.141 56.9477L362.797 57.4391C361.355 57.9667 359.773 57.9667 358.331 57.4391L356.987 56.9477C355.767 56.5012 354.428 56.5012 353.208 56.9477L351.865 57.4391C350.423 57.9667 348.84 57.9667 347.398 57.4391L346.055 56.9477C344.834 56.5012 343.495 56.5012 342.275 56.9477L340.932 57.4391C339.49 57.9667 337.907 57.9667 336.465 57.4391L335.122 56.9477C333.902 56.5012 332.563 56.5012 331.342 56.9477L329.999 57.4391C328.557 57.9667 326.975 57.9667 325.533 57.4391L324.189 56.9477C322.969 56.5012 321.63 56.5012 320.41 56.9477L319.067 57.4391C317.624 57.9667 316.042 57.9667 314.6 57.4391L313.257 56.9477C312.036 56.5012 310.697 56.5012 309.477 56.9477L308.134 57.4391C306.692 57.9667 305.109 57.9667 303.667 57.4391L302.324 56.9477C301.104 56.5012 299.765 56.5012 298.544 56.9477L295.14 58.1934C294.88 58.2883 294.593 58.1549 294.498 57.8956C294.403 57.6363 294.537 57.3491 294.796 57.2543L298.201 56.0085C299.643 55.4809 301.225 55.4809 302.668 56.0085L304.011 56.5C305.231 56.9464 306.57 56.9464 307.79 56.5L309.134 56.0085C310.576 55.4809 312.158 55.4809 313.6 56.0085L314.943 56.5C316.164 56.9464 317.503 56.9464 318.723 56.5L320.066 56.0085C321.508 55.4809 323.091 55.4809 324.533 56.0085L325.876 56.5C327.096 56.9464 328.435 56.9464 329.656 56.5L330.999 56.0085C332.441 55.4809 334.023 55.4809 335.466 56.0085L336.809 56.5C338.029 56.9464 339.368 56.9464 340.588 56.5L341.932 56.0085C343.374 55.4809 344.956 55.4809 346.398 56.0085L347.742 56.5C348.962 56.9464 350.301 56.9464 351.521 56.5L352.864 56.0085C354.306 55.4809 355.889 55.4809 357.331 56.0085L358.674 56.5C359.894 56.9464 361.233 56.9464 362.454 56.5L363.797 56.0085C365.239 55.4809 366.822 55.4809 368.264 56.0085L369.607 56.5C370.827 56.9464 372.166 56.9464 373.386 56.5L374.731 56.0079C376.172 55.4807 377.753 55.4802 379.195 56.0067L380.541 56.4982C381.76 56.9437 383.098 56.9433 384.317 56.4972L385.662 56.0051C387.104 55.4775 388.687 55.4775 390.129 56.0051L391.472 56.4965C392.693 56.943 394.032 56.943 395.252 56.4965L396.595 56.0051C398.037 55.4775 399.62 55.4775 401.062 56.0051L402.405 56.4965C403.625 56.943 404.964 56.943 406.184 56.4965L407.528 56.0051C408.97 55.4775 410.552 55.4775 411.994 56.0051L415.399 57.2508C415.659 57.3457 415.792 57.6329 415.697 57.8922C415.602 58.1515 415.315 58.2848 415.056 58.1899L411.651 56.9442C410.431 56.4978 409.092 56.4978 407.871 56.9442L406.528 57.4357C405.086 57.9633 403.503 57.9633 402.061 57.4357L400.718 56.9442C399.498 56.4978 398.159 56.4978 396.939 56.9442L395.595 57.4357C394.153 57.9633 392.571 57.9633 391.129 57.4357L389.785 56.9442Z" fill="#2F3951"/>
</g>
<rect width="39.2697" height="34.4414" transform="matrix(1 0 0 -1 249.175 57.0156)" fill="#ECF1FB"/>
<path d="M249.175 57.0156H258.199V28.4219L265.093 22.5742H249.175V57.0156Z" fill="#E0E6F2"/>
<path d="M250.771 42.5547L287.783 42.5937" stroke="#93A2C0"/>
<rect x="1" y="-1" width="37.2697" height="32.4414" transform="matrix(1 0 0 -1 249.175 55.0156)" stroke="#BAC5DC" strokeWidth="2"/>
<rect width="39.2697" height="2.26465" transform="matrix(1 0 0 -1 249.175 40.8438)" fill="#BAC5DC"/>
<rect x="239.221" y="13.1094" width="126.012" height="2.86816" fill="#727E9A"/>
<path d="M239.221 13.1094H365.233L353.233 -0.000976562H251.221L239.221 13.1094Z" fill="#535B70"/>
<path d="M214.523 76.1719H308.683V62.9629H225.757L214.523 76.1719Z" fill="#535B70"/>
<rect width="94.1582" height="2.54004" transform="matrix(1 0 0 -1 214.525 78.7031)" fill="#727E9A"/>
<rect width="28.3684" height="59.7422" transform="matrix(-1 0 0 1 296.907 118.961)" fill="#404550"/>
<rect width="9.16089" height="21.5703" transform="matrix(-1 0 0 1 281.596 125.461)" fill="#82899A"/>
<rect width="9.16089" height="21.5703" transform="matrix(-1 0 0 1 281.596 148.836)" fill="#82899A"/>
<rect width="9.16089" height="21.5703" transform="matrix(-1 0 0 1 292.72 125.461)" fill="#82899A"/>
<rect width="9.16089" height="21.5703" transform="matrix(-1 0 0 1 292.72 148.836)" fill="#82899A"/>
<rect x="265.69" y="95.7031" width="3.11963" height="83" fill="#727E9A"/>
<rect x="234.683" y="96.7031" width="63" height="81" stroke="#BAC5DC" strokeWidth="2"/>
<path d="M233.683 95.7031H248.526L241.776 105.889V178.703H236.802H233.683V95.7031Z" fill="#E0E6F2"/>
<rect x="233.683" y="95.7031" width="3.11963" height="83" fill="#727E9A"/>
<circle cx="251.529" cy="132.522" r="3.0974" fill="white" stroke="#B6BDCC" strokeWidth="0.31876"/>
<circle cx="251.179" cy="132.174" r="2.61187" fill="#B6BDCC"/>
<path d="M256.09 132.52H246.971C246.971 130.002 249.012 127.961 251.53 127.961C254.049 127.961 256.09 130.002 256.09 132.52Z" fill="#E0E6F2"/>
<path d="M251.529 97.6953L251.529 129.943" stroke="#E0E6F2" strokeWidth="0.5" strokeLinecap="round"/>
<rect x="234.683" y="96.7031" width="31.9133" height="81" stroke="#BAC5DC" strokeWidth="2"/>
<rect x="233.683" y="117.797" width="65" height="2" fill="#BAC5DC"/>
<rect width="6.94073" height="52.3584" transform="matrix(-1 0 0 1 406.83 142.062)" fill="#D5DDED"/>
<rect width="8.52881" height="20.8594" transform="matrix(-1 0 0 1 280.964 125.461)" fill="#535966"/>
<rect width="8.52881" height="20.8594" transform="matrix(-1 0 0 1 280.964 148.836)" fill="#535966"/>
<rect width="8.52881" height="20.8594" transform="matrix(-1 0 0 1 292.088 125.461)" fill="#535966"/>
<rect width="8.52881" height="20.8594" transform="matrix(-1 0 0 1 292.088 148.836)" fill="#535966"/>
<mask id="mask1_41_357" style="mask-type:alpha" maskUnits="userSpaceOnUse" x="214" y="62" width="95" height="15">
<path d="M214.523 76.1719H308.683V62.9629H225.757L214.523 76.1719Z" fill="#535B70"/>
</mask>
<g mask="url(#mask1_41_357)">
<path fill-rule="evenodd" clip-rule="evenodd" d="M306.535 67.827C305.315 67.3806 303.976 67.3806 302.756 67.827L301.411 68.3191C299.97 68.8464 298.389 68.8468 296.947 68.3204L295.601 67.8288C294.382 67.3833 293.044 67.3837 291.825 67.8298L290.48 68.3219C289.038 68.8496 287.455 68.8496 286.013 68.3219L284.67 67.8305C283.45 67.384 282.111 67.384 280.89 67.8305L279.547 68.3219C278.105 68.8496 276.523 68.8496 275.08 68.3219L273.737 67.8305C272.517 67.384 271.178 67.384 269.958 67.8305L268.614 68.3219C267.172 68.8496 265.59 68.8496 264.148 68.3219L262.805 67.8305C261.584 67.384 260.245 67.384 259.025 67.8305L257.682 68.3219C256.24 68.8496 254.657 68.8496 253.215 68.3219L251.872 67.8305C250.652 67.384 249.313 67.384 248.092 67.8305L246.749 68.3219C245.307 68.8496 243.725 68.8496 242.282 68.3219L240.939 67.8305C239.719 67.384 238.38 67.384 237.16 67.8305L235.816 68.3219C234.374 68.8496 232.792 68.8496 231.35 68.3219L230.007 67.8305C228.786 67.384 227.447 67.384 226.227 67.8305L224.884 68.3219C223.442 68.8496 221.859 68.8496 220.417 68.3219L219.074 67.8305C217.854 67.384 216.515 67.384 215.294 67.8305L211.889 69.0762L211.546 68.1371L214.951 66.8914C216.393 66.3637 217.975 66.3637 219.417 66.8914L220.761 67.3828C221.981 67.8293 223.32 67.8293 224.54 67.3828L225.883 66.8914C227.325 66.3637 228.908 66.3637 230.35 66.8914L231.693 67.3828C232.914 67.8293 234.253 67.8293 235.473 67.3828L236.816 66.8914C238.258 66.3637 239.841 66.3637 241.283 66.8914L242.626 67.3828C243.846 67.8293 245.185 67.8293 246.406 67.3828L247.749 66.8914C249.191 66.3637 250.773 66.3637 252.215 66.8914L253.559 67.3828C254.779 67.8293 256.118 67.8293 257.338 67.3828L258.681 66.8914C260.124 66.3637 261.706 66.3637 263.148 66.8914L264.491 67.3828C265.712 67.8293 267.051 67.8293 268.271 67.3828L269.614 66.8914C271.056 66.3637 272.639 66.3637 274.081 66.8914L275.424 67.3828C276.644 67.8293 277.983 67.8293 279.204 67.3828L280.547 66.8914C281.989 66.3637 283.571 66.3637 285.014 66.8914L286.357 67.3828C287.577 67.8293 288.916 67.8293 290.136 67.3828L291.481 66.8907C292.922 66.3635 294.503 66.363 295.945 66.8895L297.29 67.381C298.51 67.8265 299.848 67.8261 301.067 67.38L302.412 66.8879C303.854 66.3603 305.437 66.3603 306.879 66.8879L308.222 67.3794C309.442 67.8258 310.781 67.8258 312.002 67.3794L313.345 66.8879C314.787 66.3603 316.369 66.3603 317.812 66.8879L319.155 67.3794C320.375 67.8258 321.714 67.8258 322.934 67.3794L324.277 66.8879C325.72 66.3603 327.302 66.3603 328.744 66.8879L332.149 68.1336L331.805 69.0728L328.401 67.827C327.18 67.3806 325.841 67.3806 324.621 67.827L323.278 68.3185C321.836 68.8461 320.253 68.8461 318.811 68.3185L317.468 67.827C316.248 67.3806 314.909 67.3806 313.688 67.827L312.345 68.3185C310.903 68.8461 309.321 68.8461 307.878 68.3185L306.535 67.827Z" fill="#2F3951"/>
<path fill-rule="evenodd" clip-rule="evenodd" d="M306.535 72.4599C305.315 72.0134 303.976 72.0134 302.756 72.4599L301.411 72.9519C299.97 73.4792 298.389 73.4796 296.947 72.9532L295.601 72.4616C294.382 72.0161 293.044 72.0165 291.825 72.4626L290.48 72.9547C289.038 73.4824 287.455 73.4824 286.013 72.9547L284.67 72.4633C283.45 72.0168 282.111 72.0168 280.89 72.4633L279.547 72.9547C278.105 73.4824 276.523 73.4824 275.08 72.9547L273.737 72.4633C272.517 72.0168 271.178 72.0168 269.958 72.4633L268.614 72.9547C267.172 73.4824 265.59 73.4824 264.148 72.9547L262.805 72.4633C261.584 72.0168 260.245 72.0168 259.025 72.4633L257.682 72.9547C256.24 73.4824 254.657 73.4824 253.215 72.9547L251.872 72.4633C250.652 72.0168 249.313 72.0168 248.092 72.4633L246.749 72.9547C245.307 73.4824 243.725 73.4824 242.282 72.9547L240.939 72.4633C239.719 72.0168 238.38 72.0168 237.16 72.4633L235.816 72.9547C234.374 73.4824 232.792 73.4824 231.35 72.9547L230.007 72.4633C228.786 72.0168 227.447 72.0168 226.227 72.4633L224.884 72.9547C223.442 73.4824 221.859 73.4824 220.417 72.9547L219.074 72.4633C217.854 72.0168 216.515 72.0168 215.294 72.4633L211.889 73.709L211.546 72.7699L214.951 71.5242C216.393 70.9965 217.975 70.9965 219.417 71.5242L220.761 72.0156C221.981 72.4621 223.32 72.4621 224.54 72.0156L225.883 71.5242C227.325 70.9965 228.908 70.9965 230.35 71.5242L231.693 72.0156C232.914 72.4621 234.253 72.4621 235.473 72.0156L236.816 71.5242C238.258 70.9965 239.841 70.9965 241.283 71.5242L242.626 72.0156C243.846 72.4621 245.185 72.4621 246.406 72.0156L247.749 71.5242C249.191 70.9965 250.773 70.9965 252.215 71.5242L253.559 72.0156C254.779 72.4621 256.118 72.4621 257.338 72.0156L258.681 71.5242C260.124 70.9965 261.706 70.9965 263.148 71.5242L264.491 72.0156C265.712 72.4621 267.051 72.4621 268.271 72.0156L269.614 71.5242C271.056 70.9965 272.639 70.9965 274.081 71.5242L275.424 72.0156C276.644 72.4621 277.983 72.4621 279.204 72.0156L280.547 71.5242C281.989 70.9965 283.571 70.9965 285.014 71.5242L286.357 72.0156C287.577 72.4621 288.916 72.4621 290.136 72.0156L291.481 71.5235C292.922 70.9963 294.503 70.9959 295.945 71.5223L297.29 72.0139C298.51 72.4593 299.848 72.4589 301.067 72.0128L302.412 71.5207C303.854 70.9931 305.437 70.9931 306.879 71.5207L308.222 72.0122C309.442 72.4586 310.781 72.4586 312.002 72.0122L313.345 71.5207C314.787 70.9931 316.369 70.9931 317.812 71.5207L319.155 72.0122C320.375 72.4586 321.714 72.4586 322.934 72.0122L324.277 71.5207C325.72 70.9931 327.302 70.9931 328.744 71.5207L332.149 72.7665L331.805 73.7056L328.401 72.4599C327.18 72.0134 325.841 72.0134 324.621 72.4599L323.278 72.9513C321.836 73.4789 320.253 73.4789 318.811 72.9513L317.468 72.4599C316.248 72.0134 314.909 72.0134 313.688 72.4599L312.345 72.9513C310.903 73.4789 309.321 73.4789 307.878 72.9513L306.535 72.4599Z" fill="#2F3951"/>
</g>
<mask id="mask2_41_357" style="mask-type:alpha" maskUnits="userSpaceOnUse" x="239" y="0" width="127" height="14">
<path d="M239.221 13.1094H365.233L353.233 -0.000976562H251.221L239.221 13.1094Z" fill="#535B70"/>
</mask>
<g mask="url(#mask2_41_357)">
<path fill-rule="evenodd" clip-rule="evenodd" d="M336.857 4.46767C335.637 4.02119 334.298 4.02119 333.078 4.46767L331.733 4.95974C330.292 5.48698 328.711 5.48741 327.27 4.96098L325.924 4.46941C324.704 4.02396 323.366 4.02433 322.147 4.47045L320.802 4.96252C319.36 5.49018 317.777 5.49018 316.335 4.96252L314.992 4.4711C313.772 4.02462 312.433 4.02462 311.213 4.4711L309.869 4.96252C308.427 5.49018 306.845 5.49018 305.403 4.96252L304.059 4.4711C302.839 4.02462 301.5 4.02462 300.28 4.4711L298.937 4.96252C297.495 5.49018 295.912 5.49018 294.47 4.96252L293.127 4.4711C291.906 4.02462 290.567 4.02462 289.347 4.4711L288.004 4.96252C286.562 5.49018 284.979 5.49018 283.537 4.96252L282.194 4.4711C280.974 4.02462 279.635 4.02462 278.415 4.4711L277.071 4.96252C275.629 5.49018 274.047 5.49018 272.605 4.96252L271.261 4.4711C270.041 4.02462 268.702 4.02462 267.482 4.4711L266.139 4.96252C264.697 5.49018 263.114 5.49018 261.672 4.96252L260.329 4.4711C259.108 4.02462 257.769 4.02462 256.549 4.4711L255.206 4.96252C253.764 5.49018 252.181 5.49018 250.739 4.96252L249.396 4.4711C248.176 4.02462 246.837 4.02462 245.616 4.4711L242.212 5.71681C241.952 5.81169 241.665 5.67838 241.57 5.41905C241.475 5.15972 241.609 4.87258 241.868 4.77769L245.273 3.53198C246.715 3.00432 248.297 3.00432 249.74 3.53198L251.083 4.02341C252.303 4.46989 253.642 4.46989 254.862 4.02341L256.206 3.53198C257.648 3.00432 259.23 3.00432 260.672 3.53198L262.015 4.02341C263.236 4.46989 264.575 4.46989 265.795 4.02341L267.138 3.53198C268.58 3.00432 270.163 3.00432 271.605 3.53198L272.948 4.02341C274.168 4.46989 275.507 4.46989 276.728 4.02341L278.071 3.53198C279.513 3.00432 281.096 3.00432 282.538 3.53198L283.881 4.02341C285.101 4.46989 286.44 4.46989 287.66 4.02341L289.004 3.53198C290.446 3.00432 292.028 3.00432 293.47 3.53198L294.814 4.02341C296.034 4.46989 297.373 4.46989 298.593 4.02341L299.936 3.53198C301.378 3.00432 302.961 3.00432 304.403 3.53198L305.746 4.02341C306.967 4.46989 308.305 4.46989 309.526 4.02341L310.869 3.53198C312.311 3.00432 313.894 3.00432 315.336 3.53198L316.679 4.02341C317.899 4.46989 319.238 4.46989 320.458 4.02341L321.803 3.53134C323.244 3.0041 324.825 3.00367 326.267 3.5301L327.613 4.02167C328.832 4.46712 330.17 4.46675 331.389 4.02063L332.734 3.52856C334.176 3.0009 335.759 3.0009 337.201 3.52856L338.544 4.01998C339.765 4.46646 341.104 4.46646 342.324 4.01998L343.667 3.52856C345.109 3.0009 346.692 3.0009 348.134 3.52856L349.477 4.01998C350.697 4.46646 352.036 4.46646 353.257 4.01998L354.6 3.52856C356.042 3.0009 357.624 3.0009 359.066 3.52856L362.471 4.77427C362.731 4.86915 362.864 5.1563 362.769 5.41563C362.674 5.67496 362.387 5.80827 362.128 5.71338L358.723 4.46767C357.503 4.02119 356.164 4.02119 354.943 4.46767L353.6 4.9591C352.158 5.48676 350.576 5.48676 349.133 4.9591L347.79 4.46767C346.57 4.02119 345.231 4.02119 344.011 4.46767L342.667 4.9591C341.225 5.48676 339.643 5.48676 338.201 4.9591L336.857 4.46767Z" fill="#2F3951"/>
<path fill-rule="evenodd" clip-rule="evenodd" d="M336.857 9.09267C335.637 8.64619 334.298 8.64619 333.078 9.09267L331.733 9.58474C330.292 10.112 328.711 10.1124 327.27 9.58598L325.924 9.09441C324.704 8.64896 323.366 8.64933 322.147 9.09545L320.802 9.58752C319.36 10.1152 317.777 10.1152 316.335 9.58752L314.992 9.0961C313.772 8.64962 312.433 8.64962 311.213 9.0961L309.869 9.58752C308.427 10.1152 306.845 10.1152 305.403 9.58752L304.059 9.0961C302.839 8.64962 301.5 8.64962 300.28 9.0961L298.937 9.58752C297.495 10.1152 295.912 10.1152 294.47 9.58752L293.127 9.0961C291.906 8.64962 290.567 8.64962 289.347 9.0961L288.004 9.58752C286.562 10.1152 284.979 10.1152 283.537 9.58752L282.194 9.0961C280.974 8.64962 279.635 8.64962 278.415 9.0961L277.071 9.58752C275.629 10.1152 274.047 10.1152 272.605 9.58752L271.261 9.0961C270.041 8.64962 268.702 8.64962 267.482 9.0961L266.139 9.58752C264.697 10.1152 263.114 10.1152 261.672 9.58752L260.329 9.0961C259.108 8.64962 257.769 8.64962 256.549 9.0961L255.206 9.58752C253.764 10.1152 252.181 10.1152 250.739 9.58752L249.396 9.0961C248.176 8.64962 246.837 8.64962 245.616 9.0961L242.212 10.3418C241.952 10.4367 241.665 10.3034 241.57 10.0441C241.475 9.78472 241.609 9.49758 241.868 9.40269L245.273 8.15698C246.715 7.62932 248.297 7.62932 249.74 8.15698L251.083 8.64841C252.303 9.09489 253.642 9.09489 254.862 8.64841L256.206 8.15698C257.648 7.62932 259.23 7.62932 260.672 8.15698L262.015 8.64841C263.236 9.09489 264.575 9.09489 265.795 8.64841L267.138 8.15698C268.58 7.62932 270.163 7.62932 271.605 8.15698L272.948 8.64841C274.168 9.09489 275.507 9.09489 276.728 8.64841L278.071 8.15698C279.513 7.62932 281.096 7.62932 282.538 8.15698L283.881 8.64841C285.101 9.09489 286.44 9.09489 287.66 8.64841L289.004 8.15698C290.446 7.62932 292.028 7.62932 293.47 8.15698L294.814 8.64841C296.034 9.09489 297.373 9.09489 298.593 8.64841L299.936 8.15698C301.378 7.62932 302.961 7.62932 304.403 8.15698L305.746 8.64841C306.967 9.09489 308.305 9.09489 309.526 8.64841L310.869 8.15698C312.311 7.62932 313.894 7.62932 315.336 8.15698L316.679 8.64841C317.899 9.09489 319.238 9.09489 320.458 8.64841L321.803 8.15634C323.244 7.6291 324.825 7.62867 326.267 8.1551L327.613 8.64667C328.832 9.09212 330.17 9.09175 331.389 8.64563L332.734 8.15356C334.176 7.6259 335.759 7.6259 337.201 8.15356L338.544 8.64498C339.765 9.09146 341.104 9.09146 342.324 8.64498L343.667 8.15356C345.109 7.6259 346.692 7.6259 348.134 8.15356L349.477 8.64498C350.697 9.09146 352.036 9.09146 353.257 8.64498L354.6 8.15356C356.042 7.6259 357.624 7.6259 359.066 8.15356L362.471 9.39927C362.731 9.49415 362.864 9.7813 362.769 10.0406C362.674 10.3 362.387 10.4333 362.128 10.3384L358.723 9.09267C357.503 8.64619 356.164 8.64619 354.943 9.09267L353.6 9.5841C352.158 10.1118 350.576 10.1118 349.133 9.5841L347.79 9.09267C346.57 8.64619 345.231 8.64619 344.011 9.09267L342.667 9.5841C341.225 10.1118 339.643 10.1118 338.201 9.5841L336.857 9.09267Z" fill="#2F3951"/>
</g>
<path d="M366.814 85.4453L389.739 79.4453V129.945L366.814 125.945V85.4453Z" fill="white"/>
<rect x="377.28" y="81.6484" width="0.996582" height="47.0547" fill="#D5DDED"/>
<path d="M400.574 169.222C408.133 168.172 411.143 170.781 415.693 175.732C421.146 175.12 427.945 175.659 431.934 181.728C435.922 187.798 433.098 194.421 433.098 194.421L343.038 194.421C348.707 181.822 360.887 185.951 363.406 184.551C365.926 183.151 367.396 176.992 373.696 175.732C379.995 174.472 384.195 179.302 386.925 178.672C388.778 178.244 393.014 170.272 400.574 169.222Z" fill="#A0C077"/>
<path d="M101 192.711H90L89 104.711L194.25 155.211L299.5 205.711C327.333 203.378 384.4 199.011 398 200.211C415 201.711 419 213.211 419 216.211C419 219.211 417.667 221.211 416 222.211L232.83 252.201C222.886 253.829 212.682 252.147 203.787 247.413L101 192.711Z" fill="#F7B99C"/>
<path fill-rule="evenodd" clip-rule="evenodd" d="M415.693 222.261L386.005 227.122C385.734 223.15 386.541 214.775 392 213.215C399 211.215 408.22 211.121 411.239 213.214C414.164 215.243 415.321 219.855 415.693 222.261Z" fill="#A2ABC0"/>
<path fill-rule="evenodd" clip-rule="evenodd" d="M415.693 222.261L386.005 227.122C385.734 223.15 386.541 214.775 392 213.215C399 211.215 408.22 211.121 411.239 213.214C414.164 215.243 415.321 219.855 415.693 222.261Z" fill="#FDD4C1"/>
<path d="M202 201.212C193.5 200.764 184.5 195.045 180.5 192.212C186.9 183.812 264.5 198.378 302.5 206.712C311.833 209.545 329.2 213.311 324 215.712C317.5 218.712 301.062 215.712 293 215.712C284.5 215.712 269.5 216.816 259 215.712C248.5 214.607 230.5 206.712 226 205.212C221.5 203.712 211.5 201.712 202 201.212Z" fill="#E09C7C"/>
<path d="M122.5 102.709L90 104.709L168.5 188.209C188.5 197.209 219.5 198.209 227.5 198.209C235.5 198.209 251 206.709 260 208.709C269 210.709 300 210.209 304 210.709C308 211.209 324 215.709 328.5 216.209C333 216.709 346.585 203.304 333.5 188.709C320.5 174.209 284.5 176.709 278 176.709C271.5 176.709 266.5 171.709 253 164.709C239.5 157.709 206 113.71 181.5 102.711C160.264 93.1764 130.5 97.7089 122.5 102.709Z" fill="#F7B99C"/>
<path fill-rule="evenodd" clip-rule="evenodd" d="M324.441 215.456C324.465 215.453 324.489 215.449 324.513 215.446C331.513 214.446 338 198.21 332 194.21C326 190.21 315.583 185.17 308.98 185.899C302.377 186.628 296.236 207.759 304.327 210.629C304.327 210.629 304.495 210.703 304.802 210.833C306.999 211.219 311.025 212.214 315.208 213.247C318.451 214.049 321.789 214.874 324.441 215.456Z" fill="#FDD4C1"/>
<path fill-rule="evenodd" clip-rule="evenodd" d="M90 192.715H101L120.096 202.878C120.022 202.796 119.942 202.712 119.857 202.625C119.661 202.425 119.453 202.215 119.234 201.994C112.363 195.068 94.3756 176.936 99.1903 104.312H92.3649L89.6013 157.632L90 192.715Z" fill="#E09C7C"/>
<path d="M96 98.7109L67 97.2109L50.5 214.211L92.5 204.711L96 98.7109Z" fill="white"/>
<path d="M69.9646 80.3411L0 73.2109V230.211L59.3178 237.838C65.0849 238.579 70.2662 234.263 70.5786 228.456L78.0391 89.7782C78.2971 84.9818 74.7431 80.8281 69.9646 80.3411Z" fill="#202224"/>
<circle cx="41.3302" cy="206.809" r="12.0586" fill="#404448"/>
<path d="M378.73 243.641C378.73 252.763 371.335 260.159 362.212 260.159C353.089 260.159 345.694 252.763 345.694 243.641" stroke="#404448" strokeWidth="2"/>
<path d="M342.212 269.519C342.212 266.81 342.212 265.456 342.545 264.198C342.84 263.084 343.325 262.029 343.98 261.08C344.719 260.008 345.747 259.128 347.804 257.366L359.554 247.303C361.036 246.034 361.777 245.4 362.608 245.159C363.34 244.946 364.117 244.947 364.849 245.162C365.679 245.406 366.418 246.043 367.896 247.317L379.557 257.368C381.6 259.129 382.621 260.01 383.355 261.079C384.005 262.026 384.487 263.078 384.78 264.188C385.11 265.442 385.11 266.79 385.11 269.488V306.645C385.11 310.006 385.11 311.686 384.456 312.969C383.881 314.098 382.963 315.016 381.834 315.591C380.551 316.245 378.871 316.245 375.51 316.245H351.812C348.452 316.245 346.771 316.245 345.488 315.591C344.359 315.016 343.441 314.098 342.866 312.969C342.212 311.686 342.212 310.006 342.212 306.645V269.519Z" fill="#1E60FA"/>
<path d="M383.848 276.148L380.848 270.148L389.348 266.148L408.348 304.648V308.655H402.859L398.848 307.648L397.348 304.648L400.348 301.148L399.848 297.648H394.348L392.848 294.648L395.63 291.271L393.848 287.648L389.348 287.148L387.848 284.148L389.878 281.14L391.056 279.51L391.348 276.148L387.352 275.677L383.848 276.148Z" fill="#DCAD1B"/>
<path d="M412.348 300.148L394.348 262.148L382.848 266.148L387.348 275.648L389.348 276.148L390.848 279.648L389.848 281.148L402.848 308.648H408.348L411.348 306.648L412.348 300.148Z" fill="#FBD549"/>
<path fill-rule="evenodd" clip-rule="evenodd" d="M380.848 270.659C391.341 270.659 399.848 262.152 399.848 251.659C399.848 241.165 391.341 231.836 380.848 231.836C370.354 231.836 361.848 241.165 361.848 251.659C361.848 262.152 370.354 270.659 380.848 270.659ZM379.848 248.916C382.754 248.916 385.11 246.56 385.11 243.653C385.11 240.747 382.754 238.391 379.848 238.391C376.941 238.391 374.585 240.747 374.585 243.653C374.585 246.56 376.941 248.916 379.848 248.916Z" fill="#DCAD1B"/>
<path fill-rule="evenodd" clip-rule="evenodd" d="M382.848 269.648C393.341 269.648 401.848 261.142 401.848 250.648C401.848 240.155 393.341 231.648 382.848 231.648C372.354 231.648 363.848 240.155 363.848 250.648C363.848 261.142 372.354 269.648 382.848 269.648ZM379.848 248.908C382.754 248.908 385.11 246.552 385.11 243.646C385.11 240.739 382.754 238.383 379.848 238.383C376.941 238.383 374.585 240.739 374.585 243.646C374.585 246.552 376.941 248.908 379.848 248.908Z" fill="#FBD549"/>
<circle cx="382.848" cy="250.65" r="15.4705" stroke="#DCAD1B"/>
<path fill-rule="evenodd" clip-rule="evenodd" d="M379.848 248.908C382.754 248.908 385.11 246.552 385.11 243.646C385.11 240.739 382.754 238.383 379.848 238.383C378.77 238.383 377.768 238.707 376.934 239.263C379.735 239.382 381.969 241.69 381.969 244.521C381.969 246.349 381.036 247.96 379.621 248.903C379.696 248.907 379.772 248.908 379.848 248.908Z" fill="#DCAD1B"/>
<path d="M389.529 268.57L391.556 267.602L410.591 307.155L408.84 308.315L389.529 268.57Z" fill="#DCAD1B"/>
<path d="M378.73 243.643C378.73 234.52 371.335 227.125 362.212 227.125C353.089 227.125 345.694 234.52 345.694 243.643" stroke="#404448" strokeWidth="2"/>
<path d="M361.016 233.281C356.409 233.281 352.673 225.876 352.673 216.742C352.673 207.608 356.409 200.203 361.016 200.203" stroke="#404448" strokeWidth="2"/>
</svg>
