<svg width="222" height="336" viewBox="0 0 222 336" fill="none" xmlns="http://www.w3.org/2000/svg">
<path d="M-126.423 423.536C-132.823 439.137 -139.908 446.893 -148.355 461.523C-154.925 472.903 -125.487 492.244 -114.893 498.36C-98.5784 507.779 -80.8374 515.467 -63.1663 521.941C-51.3608 526.266 -39.4224 530.286 -27.957 535.478C-19.9329 539.112 -15.9673 542.231 -10.2604 541.252C-4.55358 540.274 -0.979239 531.191 1.60594 526.714L13.4238 506.244C17.3739 499.403 24.5568 498.298 31.5339 495.819C40.5657 492.608 50.5145 491.374 60.1034 491.114C69.3216 490.864 78.7993 487.248 83.5547 479.012C85.7537 475.203 87.633 471.547 89.3105 467.483C91.3952 462.433 95.522 458.184 96.4395 452.684C97.8328 444.332 96.8112 438.339 95.4298 430.235L95.316 429.567C94.2393 423.242 91.5211 416.036 93.5216 409.617C96.2547 400.848 99.3837 394.999 105.586 388.275C111.315 382.064 120.552 380.292 126.625 373.891C131.711 368.53 136.8 358.058 138.329 350.944C140.158 342.435 138.032 335.001 138.643 326.563C139.093 320.364 137.782 312.906 141.016 307.304C144.437 301.379 147.5 295.364 152.025 290.24C154.786 287.115 158.412 285.193 160.539 281.51L165.596 272.751C174.074 258.066 175.008 236.015 166.454 220.693C163.783 215.908 158.776 208.982 161.681 203.339C164.272 198.306 169.006 196.379 173.036 192.694C182.342 184.188 190.368 171.404 192.742 158.563C193.812 152.772 195.528 144.46 194.294 138.831C192.784 131.941 189.157 124.312 188.78 117.305C188.437 110.936 184.102 105.337 187.194 98.9982C191.632 89.9004 195.335 80.8875 200.463 72.0046C207.565 59.7049 213.318 46.7946 218.587 33.5961C224.794 18.0478 223.137 4.76772 206.875 1.19245C190.906 -2.3187 182.785 11.2331 172.388 20.3791C166.517 25.544 158.022 31.6542 153.943 38.2915C150.13 44.4974 146.647 50.9296 143.005 57.2374C138.87 64.3991 134.456 70.4855 128.534 76.1749C123.247 81.2549 114.285 83.6956 107.995 87.8007C102.541 91.3606 97.9918 96.4025 94.2479 101.698C91.3472 105.8 89.0993 110.504 86.5867 114.856C84.7219 118.086 84.7495 121.8 83.0189 125.045C77.528 135.344 70.1831 140.487 59.7155 145.358C50.3345 149.722 35.6465 150.955 30.0986 160.565C22.8708 173.083 19.4533 187.023 12.2168 199.557C5.44222 211.291 -5.18792 219.947 -18.319 223.373C-24.1633 224.898 -28.6303 227.007 -33.7071 229.976C-40.8788 234.17 -45.7277 239.768 -49.8055 246.831C-53.4971 253.225 -55.3706 260.145 -58.87 266.542C-62.1661 272.567 -62.8459 279.443 -66.2694 285.373C-69.1977 290.445 -71.9374 294.489 -76.0029 298.667C-84.2251 307.118 -96.1725 308.034 -105.509 314.128C-117.818 322.162 -125.186 334.698 -130.441 348.289C-133.097 355.158 -134.822 361.568 -134.863 369.093C-134.91 377.453 -129.733 382.499 -125.935 389.163C-119.381 400.663 -121.648 411.897 -126.423 423.536Z" fill="#27DAB7"/>
</svg>
